<?xml version="1.0" encoding="utf-8"?>
<!-- Svg Vector Icons : http://www.onlinewebfonts.com/icon -->
<!DOCTYPE svg PUBLIC "-//W3C//DTD SVG 1.1//EN" "http://www.w3.org/Graphics/SVG/1.1/DTD/svg11.dtd">
<svg version="1.1" xmlns="http://www.w3.org/2000/svg" xmlns:xlink="http://www.w3.org/1999/xlink" x="0px" y="0px" viewBox="0 0 1000 1000" enable-background="new 0 0 1000 1000" xml:space="preserve">
<metadata> Svg Vector Icons : http://www.onlinewebfonts.com/icon </metadata>
<g><g transform="translate(0.000000,511.000000) scale(0.100000,-0.100000)"><path d="M533.2,4543.2c-118.7-32.6-237.4-118.7-315.9-231.7c-126.4-183.8-120.6-46-114.9-2634.8L108.1-667l49.8-105.3C223-914,303.4-1002.1,427.9-1071l101.5-55.5l518.9-5.7l520.8-5.7l11.5-63.2c21.1-109.2,111.1-227.9,218.3-285.3c116.8-63.2,312.1-109.2,476.8-109.2c99.6,0,134-9.6,210.6-57.4c107.2-68.9,329.3-155.1,503.6-199.1c298.7-72.8,503.6-93.8,1034-99.6l526.6-7.7l23-80.4c11.5-45.9,23-149.3,23-229.8l1.9-149.3H3154.6c-846.3,0-1462.9-7.6-1489.7-17.2C1613.2-2457.3,133-3881.9,115.8-3927.9c-17.2-47.9,19.1-239.3,57.4-291l34.5-47.9l3655.3-5.7c2709.4-3.8,3668.7,1.9,3708.9,17.2c80.4,34.5,300.6,279.6,300.6,338.9c0,68.9-497.8,1445.7-532.3,1474.4c-23,17.2-310.2,23-1288.7,23H4795.5l-13.4,197.2c-5.7,107.2-13.4,216.4-15.3,243.2c-5.7,42.1,1.9,47.9,61.3,53.6c36.4,1.9,260.4,28.7,497.8,55.5c536.1,65.1,1244.6,72.8,1551,19.1c517-90,869.3-256.6,1083.8-513.2c61.3-74.7,65.1-82.3,32.5-99.6c-19.1-9.6-57.4-40.2-86.2-67c-105.3-95.7-57.4-216.4,168.5-430.8c248.9-237.4,363.8-423.2,524.7-850.2c130.2-344.7,224-459.6,419.3-517c126.4-36.4,245.1-24.9,457.6,42.1c172.3,53.6,304.5,155.1,373.4,285.3c63.2,116.8,57.4,371.5-9.6,562.9c-109.1,306.4-294.9,557.2-584,788.9c-250.8,203-511.3,304.5-771.7,306.4H8380l57.4-47.9c42.1-34.5,70.8-44,111.1-36.4c109.2,23,315.9-155.1,402.1-348.5c42.1-91.9,21.1-168.5-51.7-203c-74.7-32.6-145.5,7.7-206.8,116.8c-28.7,51.7-84.2,118.7-124.5,147.4c-99.6,72.8-120.6,101.5-120.6,164.7c0,44-17.2,65.1-90,111.1c-49.8,32.6-103.4,57.4-118.7,57.4c-17.2,0-61.3,46-97.6,99.6c-191.5,283.4-633.8,511.3-1179.5,612.7c-195.3,34.5-296.8,42.1-725.7,42.1c-360,0-568.7-9.6-756.3-32.6c-141.7-19.2-381-47.9-532.3-63.2l-273.8-28.7l-130.2,122.5c-287.2,270-633.8,323.6-1642.9,248.9c-509.3-36.4-467.2-45.9-591.7,137.9l-65.1,95.7l367.6,9.6c337,9.6,377.2,13.4,451.9,53.6c191.5,101.5,321.7,289.1,342.8,494l11.5,103.4h-492.1c-534.2,0-582.1,7.7-658.7,105.3C2224-326.1,2224-320.4,2224,570v898h-886.5c-836.8,0-890.4,1.9-919.1,34.5c-28.7,32.6-32.6,136-32.6,1087.6c0,813.8,5.7,1060.8,24.9,1085.7c21.1,28.7,103.4,32.6,913.4,36.4l890.4,5.7l9.6,287.2c15.3,440.4,1.9,430.8,545.7,430.8c402.1,1.9,402.1,1.9,358.1,38.3c-111.1,91.9-164.7,95.7-1371,93.8C895.1,4568.1,604.1,4562.3,533.2,4543.2z M1821.9,305.7c239.4-97.6,344.7-405.9,218.3-639.5c-214.5-392.5-800.4-285.3-861.7,158.9c-24.9,174.2,67,361.9,214.5,448.1C1538.5,359.4,1668.7,368.9,1821.9,305.7z M2099.5-1256.7c32.6-65.1,59.4-124.5,63.2-130.2c9.6-19.2-191.5,21.1-247,49.8c-61.3,32.6-151.3,136-151.3,174.3c0,21.1,30.6,26.8,139.8,24.9h137.9L2099.5-1256.7z M3970.3-1565c158.9-28.7,358.1-109.1,409.8-166.6c32.5-36.4,24.9-36.4-302.5-36.4c-509.3,0-921,51.7-1202.5,149.4l-105.3,36.4l191.5,13.4c105.3,7.6,204.9,17.2,220.2,19.2C3265.6-1530.5,3840.1-1542,3970.3-1565z M2185.7-2551.1c0-5.8-26.8-38.3-61.3-72.8c-61.3-63.2-61.3-63.2-243.2-63.2l-183.8,1.9l82.3,76.6l80.4,76.6l162.8-5.8C2112.9-2539.6,2185.7-2547.3,2185.7-2551.1z M2798.4-2553c0-9.6-23-44-51.7-76.6c-53.6-59.4-53.6-59.4-233.6-53.6l-180,5.7l51.7,61.3c28.7,32.6,74.7,65.1,103.4,68.9C2595.4-2532,2798.4-2533.9,2798.4-2553z M3411.2-2556.9c0-11.5-17.2-44-40.2-74.7c-38.3-53.6-42.1-55.5-220.2-55.5c-99.6,0-180,5.7-180,11.5c0,5.8,23,40.2,49.8,74.7l49.8,65.1l170.4-1.9C3334.6-2537.7,3411.2-2547.3,3411.2-2556.9z M4014.3-2553c5.7-9.6-1.9-44-19.1-76.6l-30.6-57.5h-180c-99.6,0-181.9,5.7-181.9,15.3c0,7.7,17.2,42.1,38.3,76.6l38.3,61.3h160.8C3930.1-2533.9,4008.6-2541.6,4014.3-2553z M4636.6-2562.6c0-13.4-7.7-47.9-19.2-74.7c-17.2-47.9-23-49.8-201.1-49.8c-114.9,0-181.9,7.7-181.9,19.2s11.5,46,26.8,74.7c26.8,51.7,32.6,53.6,201.1,55.5C4600.2-2535.8,4636.6-2539.6,4636.6-2562.6z M5245.5-2610.5l-5.7-67l-185.7-5.7c-203-5.7-208.7-3.8-168.5,101.5c19.1,49.8,21.1,49.8,191.5,44l174.3-5.7L5245.5-2610.5z M5862.1-2608.6v-78.5h-181.9h-181.9v63.2c0,36.4,3.8,68.9,7.7,72.8c3.8,3.8,86.2,9.6,181.9,13.4l174.2,7.7V-2608.6z M6476.7-2574.1c9.6-19.1,17.2-51.7,17.2-72.8c0-38.3-11.5-40.2-181.9-40.2c-178.1,0-181.9,1.9-193.4,47.9c-23,93.8-3.8,103.4,174.2,101.5C6428.8-2539.6,6461.4-2545.4,6476.7-2574.1z M7083.7-2558.8c11.5-11.5,26.8-47.9,32.6-76.6l13.4-53.6l-187.6,5.7l-187.7,5.7L6741-2622c-9.6,30.6-11.5,63.2-5.8,72.8C6752.5-2524.3,7060.7-2530.1,7083.7-2558.8z M1885.1-2888.1l-70.8-86.2h-201.1h-201.1l84.3,86.2l84.2,86.2h189.6h187.7L1885.1-2888.1z M2589.7-2834.5c-11.5-19.2-38.3-59.3-63.2-88.1c-44-53.6-46-53.6-241.3-47.9l-197.2,5.7l68.9,82.3l70.8,80.4h189.6C2593.5-2802,2606.9-2803.9,2589.7-2834.5z M3258-2811.6c0-5.7-21.1-44-47.9-86.2l-47.9-76.6h-203h-201l59.4,86.2l59.4,86.2h189.6C3171.8-2802,3258-2805.8,3258-2811.6z M3909-2811.6c0-3.8-13.4-44-30.6-86.2l-30.6-76.6h-199.1c-109.1,0-199.1,3.8-199.1,9.6c0,5.7,17.2,46,38.3,86.2l38.3,76.6h191.5C3822.8-2802,3909-2805.8,3909-2811.6z M4560-2828.8c0-13.4-9.6-51.7-21.1-86.2l-21.1-59.4h-199.1c-109.1,0-199.1,3.8-199.1,9.6c0,3.8,13.4,44,30.6,86.2l30.6,76.6h189.6C4516-2802,4560-2807.7,4560-2828.8z M5211-2878.6c0-46-9.6-82.3-24.9-88.1c-13.4-3.8-107.2-5.8-206.8-3.8l-181.9,5.7l17.2,82.3l15.3,80.4h191.5H5211V-2878.6z M5881.2-2888.1v-86.2h-201.1h-201.1v86.2v86.2h201.1h201.1V-2888.1z M7246.5-3029.8c38.3-124.5,70.9-235.5,70.9-248.9c0-13.4-65.1-21.1-210.6-21.1c-203,0-210.6,1.9-220.2,44c-5.7,23-21.1,93.8-34.5,157l-23,114.9l-338.9,5.7l-337,3.8l-9.6,72.8c-3.8,38.3-3.8,76.6,0,86.2c3.8,7.7,239.4,13.4,520.8,13.4h513.2L7246.5-3029.8z M1687.8-3102.6c-1.9-9.6-38.3-55.5-86.2-105.3l-82.3-91.9H1303h-216.4l103.4,105.3l103.4,105.3h197.2C1599.8-3089.2,1687.8-3094.9,1687.8-3102.6z M2337-3175.4c-34.5-47.9-72.8-95.7-86.2-107.2c-13.4-9.6-111.1-15.3-225.9-13.4l-201,5.7l78.5,101.5l78.5,99.6h208.7h208.7L2337-3175.4z M3083.7-3102.6c0-9.6-24.9-53.6-53.6-101.5l-51.7-86.2L2764-3296c-118.7-1.9-214.5,0-214.5,5.7s28.7,53.6,63.2,105.3l61.3,95.7h206.8C2993.7-3089.2,3085.6-3094.9,3083.7-3102.6z M3748.2-3188.8l-44-101.5l-214.5-5.7c-116.8-1.9-212.5,0-212.5,5.7s21.1,53.6,47.9,105.3l47.9,95.7h210.6h208.7L3748.2-3188.8z M4483.4-3094.9c0-3.8-13.4-51.7-28.7-105.3l-30.6-99.6h-208.7c-116.8,0-210.6,7.7-210.6,15.3c0,9.6,13.4,55.5,30.6,105.3l30.6,90h208.7C4389.6-3089.2,4483.4-3091.1,4483.4-3094.9z M5172.8-3135.2c0-24.9-5.7-72.8-11.5-105.3l-11.5-59.4h-212.5h-210.6l13.4,88.1c5.8,47.9,15.3,95.7,23,105.3c5.7,9.6,99.6,17.2,210.6,17.2C5170.8-3089.2,5172.8-3089.2,5172.8-3135.2z M5881.2-3194.5v-105.3h-222.1h-224l13.4,72.8c5.7,38.3,11.5,86.2,11.5,105.3c0,28.7,23,32.6,210.6,32.6h210.6V-3194.5z M6578.2-3119.8c5.7-17.2,11.5-63.2,11.5-105.3v-74.7h-210.6h-210.6v74.7c0,42.1-5.7,88.1-11.5,105.3c-9.6,26.8,15.3,30.6,199.1,30.6C6530.4-3089.2,6568.6-3094.9,6578.2-3119.8z M1362.3-3470.2c0-11.5-44-70.8-95.7-134l-97.7-116.8H937.2H705.6l46,53.6c24.9,28.7,78.5,88.1,120.6,134l76.6,80.4h206.8C1272.3-3453,1362.3-3460.7,1362.3-3470.2z M5123-3500.9c-1.9-21.1-9.6-78.5-17.2-128.3l-11.5-91.9H3284.8H1473.4l63.2,82.3c34.5,44,84.2,103.4,111.1,134l47.9,51.7l1713.7-3.8C5111.5-3462.6,5124.9-3462.6,5123-3500.9z M5865.9-3466.4c3.8-9.6,3.8-68.9,0-134l-7.7-120.6h-229.8h-231.7l13.4,118.7c7.6,65.1,19.2,126.4,23,134C5446.6-3449.2,5858.2-3447.3,5865.9-3466.4z M6614.6-3466.4c3.8-9.6,13.4-68.9,21.1-135.9l13.4-120.6l-235.5,5.7l-235.5,5.7l-5.7,103.4c-9.6,158.9-13.4,155.1,224,155.1C6511.2-3453,6610.8-3458.7,6614.6-3466.4z M7395.8-3587l30.6-124.5l-229.8-5.7c-126.4-1.9-231.7-1.9-235.5,1.9c-3.8,1.9-11.5,63.2-19.1,134l-13.4,130.2l218.3-5.7l218.3-5.7L7395.8-3587z"/><path d="M1594,234.9c-15.3-17.2-21.1-90-17.2-214.5c5.7-187.6,5.7-189.6,53.6-189.6h47.9V41.5c0,176.2-5.7,210.6-30.6,216.4C1630.4,259.8,1607.4,250.2,1594,234.9z"/><path d="M1452.3,70.2c-70.8-55.5-109.1-135.9-109.1-227.9c0-97.7,21.1-153.2,86.2-218.3c118.7-116.8,294.9-114.9,413.6,3.8c122.5,122.5,120.6,298.7-7.7,425.1l-61.3,63.2l-5.7-63.2c-3.8-38.3,5.7-76.6,23-95.7c80.4-88.1,44-241.3-67-300.6c-181.9-93.8-365.7,132.1-245.1,300.6c21.1,30.6,36.4,76.6,32.5,105.3l-5.7,49.8L1452.3,70.2z"/><path d="M2488.2,4252.1c-116.8-63.2-111.1,61.3-111.1-2280.5c0-1660.1,5.7-2150.3,24.9-2186.7c11.5-24.9,47.9-65.1,76.6-86.2c53.6-40.2,65.1-40.2,1575.9-46l1520.3-3.8v-235.5v-235.5l-453.8-23c-1771.2-90-1828.6-338.9-101.5-446.1c459.5-28.7,1767.3-28.7,2221.2,0c637.6,40.2,1085.7,101.5,1210.1,166.6c227.9,118.7-285.3,227.8-1309.7,279.6l-455.7,23v235.5V-351l1528,3.8c1420.8,5.7,1529.9,7.7,1575.9,40.2c107.2,72.8,103.4-32.5,109.1,2196.3c3.8,1131.6,0,2106.3-5.7,2161.8c-11.5,84.2-26.8,118.7-76.6,168.5l-63.2,63.2H6145.5C2993.7,4280.9,2534.2,4277,2488.2,4252.1z M9400.6,2201.4l-5.7-1719.5l-3259-5.7L2875,472.3v1723.3V3919h3264.7h3264.7L9400.6,2201.4z M6164.6,177.5c5.7-134,1.9-147.4-28.7-141.7c-28.7,5.7-36.4,28.7-40.2,128.3c-5.7,136,3.8,181.9,40.2,170.4C6151.2,328.7,6160.8,275.1,6164.6,177.5z M6053.6,190.9c0-19.2-13.4-51.7-28.7-70.8c-88.1-116.8,51.7-271.9,181.9-203c55.5,28.7,78.5,120.6,46,181.9c-15.3,28.7-26.8,70.9-26.8,93.8c1.9,36.4,5.7,34.5,57.4-23C6346.5,100.9,6358,24.3,6314-60c-42.1-82.3-155.1-128.3-237.4-97.6c-120.6,45.9-185.7,174.2-137.9,268.1c30.6,59.4,78.5,113,99.6,113C6045.9,223.4,6053.6,208.1,6053.6,190.9z"/><path d="M3240.7,2976.9c0-635.7,1.9-637.6,34.5-541.9c191.5,534.2,595.5,926.8,1160.4,1122.1l153.2,51.7l-674,1.9l-675.9,1.9L3240.7,2976.9z"/><path d="M462.4,3315.8v-315.9h880.8H2224v315.9v315.9h-880.8H462.4V3315.8z M1875.5,3168.4c5.8-30.6-15.3-34.5-233.6-34.5c-229.8,0-241.3,1.9-241.3,38.3c0,38.3,9.6,38.3,233.6,34.5C1841,3200.9,1869.7,3197.1,1875.5,3168.4z"/><path d="M462.4,2588.2v-335.1h880.8H2224v335.1v335.1h-880.8H462.4V2588.2z M1875.5,2440.7c5.8-30.6-15.3-34.5-231.7-34.5c-130.2,0-243.2,5.7-248.9,13.4c-7.7,5.7-3.8,23,9.6,38.3c15.3,19.2,72.8,24.9,243.2,21.1C1841,2473.3,1869.7,2469.5,1875.5,2440.7z"/><path d="M462.4,1860.6v-315.9h880.8H2224v315.9v315.9h-880.8H462.4V1860.6z M1875.5,1713.1c5.8-30.6-15.3-34.5-233.6-34.5c-229.8,0-241.3,1.9-241.3,38.3c0,38.3,9.6,38.3,233.6,34.5C1841,1745.7,1869.7,1741.8,1875.5,1713.1z"/><path d="M7776.9-2733c-49.8-155.1,13.4-333.2,191.5-534.2c149.3-170.4,206.8-254.7,323.6-486.4c118.7-239.3,271.9-411.7,446.1-503.6l120.6-65.1l-90,91.9c-105.3,109.1-199.1,279.6-291.1,534.2c-114.9,317.9-191.5,442.3-402.1,652.9c-128.3,130.2-201.1,218.3-231.7,285.3l-42.1,97.7L7776.9-2733z"/></g></g>
</svg>